<?xml version="1.0" encoding="utf-8"?>
<!-- Generator: Adobe Illustrator 28.0.0, SVG Export Plug-In . SVG Version: 6.00 Build 0)  -->
<svg version="1.1" id="Слой_1" xmlns="http://www.w3.org/2000/svg" xmlns:xlink="http://www.w3.org/1999/xlink" x="0px" y="0px"
	 viewBox="0 0 1000 833.2" style="enable-background:new 0 0 1000 833.2;" xml:space="preserve">
<style type="text/css">
	.st0{fill:#FF5226;}
	.st1{fill:#FFDD00;}
</style>
<path class="st0" d="M529.3,833.2c-229.8,0-416.6-186.1-416.6-415.9C112.7,187.5,299.5,0,529.3,0c229.8,0,416.6,187.5,416.6,417.4
	C945.9,647.2,759.1,833.2,529.3,833.2z"/>
<path class="st1" d="M464.8,56.4L0,781.6h213.1l268.5-418l-6.6-3l-74.4,299.1l157.6,27.8l162-203.6l-8.8-4.4l-54.7,231.2l343.4-65.4
	L930,530l-123.8,28.3l14.6,16.8l57.6-241.5l-134.3-89.8L568.4,464.9l8.7,4.4l72.2-289.7C649.3,179.6,464.8,56.4,464.8,56.4z"/>
<path class="st1" d="M464.8,56.4L0,781.6h213.1l268.5-418l-6.6-3l-74.4,299.1l157.6,27.8l162-203.6l-8.8-4.4l-54.7,231.2l138-26.3
	l83.8-350.9l-134.3-89.8L568.4,464.9l8.7,4.4l72.2-289.7C649.3,179.6,464.8,56.4,464.8,56.4z"/>
</svg>